<svg width="284" height="149" viewBox="0 0 284 149" fill="none" xmlns="http://www.w3.org/2000/svg">
    <path fill-rule="evenodd" clip-rule="evenodd" d="M199.526 147.026C153.977 156.381 124.424 129.443 64.2648 129.443C43.7069 129.443 -5.98449 140.977 1.7094 69.706C6.07538 29.2624 53.1322 10.9076 97.108 34.5464C110.048 39.588 120.265 38.0254 131.357 33.016C142.449 28.0067 156.715 5.64335 183.603 1.04239C264.516 -12.8024 354.099 115.283 199.526 147.026Z" fill="#F5F5F5"/>
    <path fill-rule="evenodd" clip-rule="evenodd" d="M197.868 55.6158C201.039 57.6962 204.223 59.8969 207.873 60.9417C211.522 61.9865 215.81 61.667 218.62 59.1233C229.96 48.8582 248.222 47.1417 261.289 55.1131C274.355 63.0841 281.123 80.0696 277.101 94.7991C273.079 109.528 258.607 120.757 243.288 121.035C235.351 121.179 228.011 124.959 220.426 127.295C212.842 129.632 203.72 130.231 197.789 124.974C191.396 119.309 192.126 107.634 199.175 102.802C188.098 103.629 177.021 104.456 165.944 105.283C168.38 106.267 170.974 107.379 172.371 109.598C173.768 111.817 173.127 115.448 170.583 116.107C161.108 118.563 151.405 114.088 142.31 110.476C133.216 106.864 122.256 104.211 114.146 109.676C95.8682 121.992 71.7211 119.947 49.952 116.356C44.7295 115.494 38.4469 113.599 37.3612 108.437C27.3657 110.312 17.1724 111.138 7.00404 110.898C4.52199 110.84 1.59188 110.45 0.431866 108.263C-1.07117 105.429 1.62694 102.215 4.25459 100.366C12.2788 94.7194 22.0756 91.6127 31.8993 91.5997C34.6978 91.5959 36.5658 88.6825 37.2783 85.9866C37.9908 83.2908 38.1902 80.2906 40.0074 78.1708C33.8283 77.2467 27.2824 79.1258 22.5447 83.1839C21.6653 83.9369 20.181 83.1809 19.8119 82.0854C19.4428 80.9903 19.8231 79.7992 20.2135 78.7112C22.3996 72.6198 25.1405 66.4306 30.1091 62.2657C35.0774 58.1008 42.8404 56.5981 48.078 60.4218C49.721 61.6213 52.5111 63.1612 56.4475 65.0408C60.4837 64.4328 63.4846 63.949 65.4507 63.5889C71.405 62.4984 76.9259 59.8042 82.323 57.0723C101.13 47.5522 120.414 36.9528 141.501 36.355C161.674 35.7827 181.013 44.5578 197.868 55.6158ZM219.21 72.12L221.102 76.8685C221.195 77.1012 221.295 77.3444 221.49 77.502C221.728 77.6928 222.053 77.7184 222.354 77.762C224.667 78.0936 226.48 79.8436 228.119 81.5026C230.219 83.6279 232.319 85.7531 234.419 87.8783C235.048 88.5152 236.093 87.8268 236.696 87.1643C238.049 85.6759 239.429 84.149 240.211 82.2975C240.992 80.4457 241.077 78.175 239.912 76.5357C239.219 75.5613 238.165 74.9043 237.084 74.3895C235.299 73.5396 233.364 73.0067 231.395 72.8227C229.475 72.6437 227.541 72.7942 225.613 72.7799C223.464 72.7644 221.316 72.543 219.21 72.12Z" fill="#FBFBFB"/>
    <path fill-rule="evenodd" clip-rule="evenodd" d="M37.362 108.438C27.3664 110.312 17.1729 111.139 7.00462 110.898C4.07843 106.65 35.7435 98.8223 36.8919 103.983C37.7996 108.063 37.8413 110.717 37.362 108.438Z" fill="#F5F5F5"/>
    <path fill-rule="evenodd" clip-rule="evenodd" d="M190.709 94.6738C191.777 94.5597 196.022 93.5233 200.479 94.0038C202.874 92.7787 214.352 93.7409 221.203 95.0784C225.601 95.9366 236.746 96.5072 240.794 98.5641C247.82 102.135 247.981 104.341 246.924 104.814C243.921 106.157 240.303 106.819 238.358 106.855C234.857 106.918 227.814 103.694 220.088 101.674C216.637 100.772 214.102 100.006 212.104 99.2626L212.43 99.1204C208.108 101.064 203.637 101.374 199.175 102.802C188.098 103.629 177.021 104.456 165.944 105.283C168.381 106.267 131.723 92.9703 142.311 91.0304C142.963 90.9109 143.682 90.838 144.463 90.8057C154.377 90.3914 174.077 96.4447 190.709 94.6738Z" fill="#F5F5F5"/>
    <path fill-rule="evenodd" clip-rule="evenodd" d="M91.7849 78.259C91.92 78.4992 91.8177 78.8191 91.6149 79.0065C91.412 79.1939 91.1334 79.2748 90.8616 79.3256C88.8589 79.7004 86.671 78.612 85.7679 76.7924C85.6673 76.5895 85.5798 76.3664 85.6105 76.1425C85.6412 75.9182 85.8302 75.701 86.057 75.7145C86.6398 76.3551 87.2311 77.0033 87.957 77.4775C88.683 77.9516 89.5701 78.2409 90.4239 78.0846C90.9083 77.9957 91.5446 77.8309 91.7849 78.259Z" fill="#ADADAD"/>
    <path fill-rule="evenodd" clip-rule="evenodd" d="M93.0974 103.082C93.126 102.52 93.8326 102.285 94.3965 102.265C96.9244 102.171 99.2786 103.406 101.613 104.376C103.948 105.346 106.667 106.061 108.947 104.97C109.423 104.742 109.921 104.43 110.438 104.541C109.581 106.196 107.534 106.947 105.668 106.845C103.802 106.743 102.053 105.957 100.332 105.23C98.6111 104.503 96.8011 103.811 94.9352 103.915C94.5522 103.936 94.1604 103.99 93.7914 103.886C93.4227 103.783 93.0785 103.464 93.0974 103.082Z" fill="#ADADAD"/>
    <path fill-rule="evenodd" clip-rule="evenodd" d="M97.5221 107.795C95.7786 107.288 93.7397 107.542 92.3076 106.429C92.1325 106.293 91.96 106.115 91.9528 105.894C91.9436 105.584 92.2785 105.357 92.5895 105.349C92.9005 105.341 93.1926 105.482 93.4846 105.589C94.551 105.98 95.7247 105.927 96.8378 106.153C98.5077 106.492 99.978 107.441 101.551 108.094C103.124 108.748 105.01 109.082 106.475 108.214C107.066 107.864 107.842 107.341 108.332 107.822C106.737 109.631 104.038 110.386 101.732 109.666C100.263 109.207 98.9996 108.225 97.5221 107.795Z" fill="#ADADAD"/>
    <path fill-rule="evenodd" clip-rule="evenodd" d="M47.2709 89.4761C46.9906 89.1189 46.9931 88.6003 47.172 88.1836C47.3509 87.7668 47.6791 87.4331 48.0187 87.1312C49.6301 85.6969 51.86 84.7263 53.9516 85.2655C55.5196 85.6693 56.7597 86.8402 57.8573 88.0263C58.3273 88.5341 58.8121 89.2615 58.4603 89.8564C58.0845 90.492 57.1414 90.3574 56.4269 90.1646C54.2087 89.5654 51.8579 89.2124 49.6162 89.7176C48.8031 89.9013 47.7847 90.1302 47.2709 89.4761Z" fill="#ADADAD"/>
    <path fill-rule="evenodd" clip-rule="evenodd" d="M83.5989 111.006C83.9078 111.192 83.8653 111.689 83.6077 111.941C83.3502 112.193 82.9706 112.266 82.6146 112.327C80.619 112.668 78.6239 113.009 76.6283 113.349C76.2117 113.421 75.7458 113.482 75.3986 113.242C75.051 113.002 75.0409 112.335 75.4546 112.248C77.9564 111.722 80.478 111.29 83.0123 110.952C83.2109 110.925 83.4272 110.903 83.5989 111.006Z" fill="#ADADAD"/>
    <path fill-rule="evenodd" clip-rule="evenodd" d="M78.5068 90.2338C78.0679 90.3956 77.5831 89.9734 77.5237 89.511C77.4644 89.0481 77.7047 88.6003 77.9829 88.2251C79.2769 86.4789 81.5839 85.585 83.7457 85.8533C85.9079 86.1221 87.8719 87.4868 89.0073 89.3391C89.1828 89.625 89.3453 89.9533 89.2788 90.2816C89.2068 90.6371 88.8731 90.895 88.52 90.9826C88.1669 91.0706 87.7953 91.0203 87.4364 90.9587C85.9437 90.7013 84.488 90.256 82.9941 90.0057C81.4997 89.755 79.9271 89.7085 78.5068 90.2338Z" fill="#ADADAD"/>
    <path fill-rule="evenodd" clip-rule="evenodd" d="M50.2906 78.2849C50.4602 77.7894 51.1794 77.9118 51.6949 78.0141C53.3021 78.3315 54.8738 77.4389 56.268 76.5815C56.4541 76.467 56.7019 76.6846 56.6981 76.9026C56.6939 77.1202 56.5365 77.3018 56.3825 77.4569C54.9925 78.8564 52.914 79.8136 51.035 79.2048C50.6151 79.0685 50.1479 78.7013 50.2906 78.2849Z" fill="#ADADAD"/>
    <path fill-rule="evenodd" clip-rule="evenodd" d="M106.111 86.7665C105.569 86.6638 105.288 86.0081 105.39 85.4677C105.491 84.9272 105.859 84.4812 106.207 84.0539C107.52 82.4406 108.717 80.725 109.66 78.8723C110.471 77.2791 111.092 75.5899 112.004 74.0516C114.613 69.6511 119.674 66.806 124.804 66.8559C122.748 65.3897 120.318 64.5227 117.856 63.9487C110.242 62.174 102.014 63.137 95.0207 66.6219C93.9152 67.1728 92.8371 67.7854 91.684 68.2294C91.1525 68.4344 90.5642 68.6033 90.0192 68.4356C89.4746 68.2679 89.0471 67.6286 89.3004 67.12C89.4464 66.8265 89.7612 66.6626 90.0558 66.5175C93.0357 65.0526 96.0278 63.5827 99.1861 62.5542C106.252 60.2538 114.059 60.2772 121.11 62.6197C123.476 63.4053 125.949 64.6267 126.973 66.8923C127.131 67.2399 127.145 67.7954 126.767 67.8524C122.703 68.4625 118.569 69.8632 115.764 72.8555C112.131 76.7307 111.252 82.6813 107.312 86.2467C106.976 86.5502 106.557 86.8512 106.111 86.7665Z" fill="#ADADAD"/>
    <path fill-rule="evenodd" clip-rule="evenodd" d="M165.944 105.283C168.38 106.267 170.974 107.379 172.371 109.598C173.768 111.817 173.127 115.448 170.583 116.107C161.108 118.563 151.405 114.088 142.31 110.476C133.216 106.864 122.256 104.211 114.146 109.676C95.8682 121.992 71.7211 119.947 49.952 116.356C44.7295 115.494 38.4469 113.599 37.3612 108.437C27.3657 110.312 17.1724 111.138 7.00404 110.898C4.52199 110.84 1.59188 110.45 0.431866 108.263C-1.07117 105.429 1.62694 102.215 4.25459 100.366C12.2788 94.7194 22.0756 91.6127 31.8993 91.5997C34.6978 91.5959 36.5658 88.6825 37.2783 85.9866C37.9908 83.2908 38.1902 80.2906 40.0074 78.1708C33.8283 77.2467 27.2824 79.1258 22.5447 83.1839C21.6653 83.9369 20.181 83.1809 19.8119 82.0854C19.4428 80.9903 19.8231 79.7992 20.2135 78.7112C22.3996 72.6198 25.1405 66.4306 30.1091 62.2657C35.0774 58.1008 40.5768 56.5197 48.0439 59.9074C49.9995 60.7945 52.7926 62.3709 56.4227 64.6366C60.4348 64.3054 63.4442 63.9562 65.4507 63.5889C71.405 62.4984 76.9259 59.8042 82.323 57.0723C101.13 47.5522 120.414 36.9528 141.501 36.355C161.674 35.7827 181.013 44.5578 197.868 55.6158C201.039 57.6962 204.223 59.8969 207.873 60.9417C211.522 61.9865 215.81 61.667 218.62 59.1233C229.96 48.8582 248.222 47.1417 261.289 55.1131C274.355 63.0841 281.123 80.0696 277.101 94.7991C273.079 109.528 258.607 120.757 243.288 121.035C235.351 121.179 228.011 124.959 220.426 127.295C212.842 129.632 203.72 130.231 197.789 124.974C191.396 119.309 192.126 107.634 199.175 102.802C188.098 103.629 177.021 104.456 165.944 105.283ZM230.063 84.9234C224.473 79.3216 216.133 76.5826 208.295 77.7737C212.09 76.599 216.157 76.303 220.083 76.9159C208.954 60.9044 190.993 50.9033 172.687 44.071C163.791 40.7505 154.526 38.0211 145.029 37.8123C132.664 37.5402 120.614 41.5442 109.193 46.2726C96.6585 51.4618 84.5336 57.5746 72.4222 63.6811C76.1591 63.4908 79.9466 65.1267 82.3617 67.9743C72.2172 63.8069 60.2013 64.4492 50.563 69.6749C50.6093 67.7656 52.1407 65.9963 54.029 65.6697C48.514 60.828 40.041 59.6533 33.4084 62.8095C26.7757 65.9661 22.3684 73.2709 22.6825 80.5874C28.2839 75.9722 36.363 74.545 43.2158 76.9599C39.1371 83.7406 37.0313 91.6844 37.2177 99.5874C39.361 98.6877 42.0021 99.1107 43.7544 100.634C41.7967 100.844 39.8386 101.054 37.8809 101.264C37.9638 102.154 38.0463 103.044 38.1292 103.934C40.201 103.63 42.2727 103.326 44.344 103.021C43.0108 104.549 41.131 105.593 39.1253 105.92C38.8737 108.463 40.6449 110.862 42.8678 112.136C45.0902 113.41 47.7006 113.791 50.2398 114.147C56.5687 115.035 62.898 115.924 69.2268 116.812C67.759 115.163 67.5187 112.507 66.5604 110.671C65.3194 108.293 63.5271 107.325 62.6286 104.17C62.3189 103.082 61.6043 101.549 62.6042 100.857C63.0242 100.566 63.5709 100.556 64.0826 100.555C66.1716 100.553 68.261 100.55 70.35 100.548C71.0254 100.548 71.7312 100.554 72.3279 100.869C74.1362 101.821 73.5651 104.636 72.2147 106.166C70.8643 107.697 68.9335 108.92 68.4723 110.905C67.9984 112.945 69.3766 115.059 71.2072 116.087C73.0374 117.115 75.2156 117.289 77.3156 117.361C81.7418 117.512 86.1799 117.307 90.5734 116.75C101.633 115.349 113.416 110.858 118.55 100.999C118.239 103.484 116.936 105.832 114.988 107.415C123.045 104.458 132.171 104.492 140.207 107.507C147.828 110.367 155.059 115.89 163.142 114.898C162.795 114.619 162.661 114.135 162.315 113.855C161.372 113.093 160.217 112.535 159.274 111.774C162.156 112.824 165.037 113.874 167.919 114.924C167.592 114.446 167.919 113.965 167.309 113.234C166.7 112.504 165.369 111.201 164.584 110.056C166.767 110.688 168.679 112.197 169.798 114.168C170.73 113.941 171.663 113.714 172.595 113.487C167.861 107.119 161.315 102.103 153.922 99.1791C150.335 97.7599 145.889 96.0619 145.44 92.2428C153.502 99.9996 165.055 103.308 176.26 103.544C187.465 103.781 198.521 101.244 209.439 98.7229C206.939 97.4643 204.686 95.7231 202.84 93.6247C215.102 100.47 228.822 104.708 242.821 105.976C242.027 104.635 241.233 103.294 240.439 101.953C242.175 102.003 243.798 103.315 244.203 104.998C245.074 104.656 245.945 104.315 246.816 103.973C245.605 102.79 244.393 101.607 243.182 100.424C245.131 99.956 247.317 101.453 247.576 103.433C248.391 103.01 249.064 102.321 249.465 101.497C248.016 100.404 246.568 99.312 245.119 98.2194C247.315 98.1749 249.519 98.907 251.248 100.255C249.202 95.2988 242.278 95.1806 237.679 92.4013C234.62 90.5528 232.585 87.4511 230.063 84.9234ZM219.651 70.6832C222.387 71.3439 225.251 70.8324 228.066 70.8408C230.983 70.8492 233.888 71.4257 236.621 72.4407C238.307 73.0675 239.994 73.9094 241.09 75.332C242.829 77.5867 242.677 80.8574 241.465 83.4308C240.252 86.0046 238.153 88.0389 236.099 90.0124C240.411 91.9292 244.724 93.8457 249.036 95.7625C250.255 96.3042 251.572 96.9398 252.13 98.1477C253.093 100.236 251.223 102.527 249.302 103.8C243.309 107.772 235.158 108.259 228.731 105.03C224.608 102.958 220.038 101.97 215.523 101.002C213.059 100.472 210.492 99.9442 208.043 100.543C206.306 100.967 204.667 101.952 202.879 101.891C201.281 101.837 200.039 103.212 199.103 104.502C196.022 108.751 193.482 114.179 195.286 119.102C196.526 122.487 199.669 124.926 203.094 126.083C206.52 127.24 210.222 127.273 213.832 127.044C218.349 126.758 222.952 126.044 226.919 123.871C229.502 122.456 231.815 120.43 234.672 119.708C238.1 118.842 241.712 120.004 245.24 119.747C248.049 119.543 250.707 118.447 253.279 117.304C259.561 114.511 265.845 111.213 270.301 105.991C276.946 98.2043 278.526 86.7941 275.351 77.0752C272.176 67.3564 264.673 59.3657 255.694 54.4234C253.225 53.0646 250.625 51.91 247.888 51.232C241.317 49.604 234.125 50.8861 228.383 54.4603C225.427 56.3005 222.858 58.6986 219.961 60.6306C217.064 62.5625 213.659 64.0505 210.189 63.713C212.863 66.657 215.778 69.7478 219.651 70.6832ZM12.8338 97.3025C8.80893 98.8659 4.78164 100.94 2.23074 104.414C3.40443 103.77 4.87818 103.698 6.10914 104.226C5.21181 104.667 4.31448 105.109 3.4171 105.551C2.91442 105.798 2.39478 106.059 2.04566 106.496C1.6965 106.933 1.57025 107.6 1.90826 108.046C2.24627 108.492 3.10114 108.451 3.26463 107.917C3.86461 105.956 6.18132 104.703 8.15845 105.27C6.67352 106.112 5.05202 107.128 4.64112 108.781C4.86315 109.525 5.95748 109.648 6.60067 109.208C7.24382 108.769 7.56483 108.009 7.9347 107.325C8.30461 106.641 8.8418 105.941 9.61326 105.829C9.77608 105.805 9.96217 105.817 10.0752 105.936C10.2723 106.144 10.1096 106.483 9.92417 106.701C9.50406 107.195 8.96788 107.628 8.76133 108.242C8.55479 108.856 8.9239 109.714 9.57252 109.674C18.6804 109.12 27.7709 108.286 36.8272 107.174C37.1546 106.467 36.1602 105.894 35.3867 105.79C33.4231 105.524 31.4031 105.681 29.5043 106.245C29.8549 105.083 31.0336 104.321 32.2326 104.103C33.4311 103.885 34.6616 104.11 35.8593 104.333C35.8685 103.495 35.7116 102.656 35.3997 101.877C33.4955 101.838 31.6081 101.204 30.0678 100.087C31.3551 99.6076 32.8508 99.717 34.0539 100.379C34.6283 100.695 35.0563 99.7698 35.066 99.1162C35.0967 96.9914 35.1274 94.8666 35.1586 92.7417C27.5298 92.9912 19.9454 94.5404 12.8338 97.3025ZM222.354 77.762C224.667 78.0936 226.48 79.8436 228.119 81.5026C230.219 83.6279 232.319 85.7531 234.419 87.8783C235.048 88.5152 236.093 87.8268 236.696 87.1643C238.049 85.6759 239.429 84.149 240.211 82.2975C240.992 80.4457 241.077 78.175 239.912 76.5357C239.219 75.5613 238.165 74.9043 237.084 74.3895C235.299 73.5396 233.364 73.0067 231.395 72.8227C229.475 72.6437 227.541 72.7942 225.613 72.7799C223.464 72.7644 221.316 72.543 219.21 72.12C219.841 73.7027 220.471 75.2858 221.102 76.8685C221.195 77.1012 221.295 77.3444 221.49 77.502C221.728 77.6928 222.053 77.7184 222.354 77.762Z" fill="#ADADAD"/>
    </svg>
    