<svg width="25" height="27" viewBox="0 0 25 27" fill="none" xmlns="http://www.w3.org/2000/svg">
    <path d="M12.5122 10.2991C11.7823 10.2991 11.0987 10.6049 10.5811 11.1639C10.0659 11.7229 9.7803 12.4612 9.7803 13.2495C9.7803 14.0379 10.0659 14.7762 10.5811 15.3352C11.0987 15.8915 11.7823 16.2 12.5122 16.2C13.2422 16.2 13.9258 15.8915 14.4434 15.3352C14.9585 14.7762 15.2442 14.0379 15.2442 13.2495C15.2442 12.4612 14.9585 11.7229 14.4434 11.1639C14.1906 10.8888 13.8897 10.6706 13.5582 10.5222C13.2266 10.3737 12.8711 10.2979 12.5122 10.2991ZM22.5781 16.5085L20.9815 15.0346C21.0572 14.5336 21.0962 14.0221 21.0962 13.5132C21.0962 13.0043 21.0572 12.4902 20.9815 11.9918L22.5781 10.5179C22.6988 10.4064 22.7851 10.2579 22.8256 10.0921C22.8662 9.92628 22.8591 9.75108 22.8052 9.58977L22.7832 9.52122C22.3438 8.19413 21.6854 6.96401 20.8399 5.89046L20.7959 5.83508C20.6932 5.7047 20.5564 5.61098 20.4034 5.56626C20.2505 5.52155 20.0885 5.52794 19.939 5.5846L17.9566 6.34661C17.2241 5.69798 16.4087 5.18645 15.5249 4.83049L15.1416 2.59192C15.1127 2.42328 15.037 2.26814 14.9245 2.1471C14.8119 2.02606 14.668 1.94486 14.5117 1.91428L14.4458 1.9011C13.1763 1.65325 11.8384 1.65325 10.5689 1.9011L10.503 1.91428C10.3467 1.94486 10.2028 2.02606 10.0902 2.1471C9.97774 2.26814 9.90199 2.42328 9.87307 2.59192L9.48733 4.84104C8.61191 5.19984 7.7964 5.71012 7.07278 6.35188L5.07571 5.5846C4.92621 5.52749 4.76416 5.52087 4.6111 5.56561C4.45803 5.61035 4.3212 5.70434 4.21878 5.83508L4.17483 5.89046C3.33082 6.96516 2.67256 8.19497 2.23147 9.52122L2.2095 9.58977C2.09964 9.91936 2.18997 10.2885 2.43655 10.5179L4.05276 12.0076C3.97708 12.5033 3.94046 13.0096 3.94046 13.5106C3.94046 14.0168 3.97708 14.5231 4.05276 15.0135L2.44143 16.5033C2.32082 16.6148 2.23449 16.7633 2.19393 16.9291C2.15338 17.0949 2.16051 17.2701 2.21438 17.4314L2.23636 17.4999C2.67825 18.8262 3.3301 20.0523 4.17971 21.1307L4.22366 21.1861C4.32633 21.3164 4.46317 21.4102 4.61614 21.4549C4.76912 21.4996 4.93105 21.4932 5.08059 21.4366L7.07766 20.6693C7.8052 21.3153 8.61575 21.8268 9.49221 22.1801L9.87795 24.4292C9.90687 24.5979 9.98262 24.753 10.0951 24.8741C10.2076 24.9951 10.3516 25.0763 10.5078 25.1069L10.5738 25.1201C11.8558 25.3692 13.1687 25.3692 14.4507 25.1201L14.5166 25.1069C14.6729 25.0763 14.8168 24.9951 14.9293 24.8741C15.0418 24.753 15.1176 24.5979 15.1465 24.4292L15.5298 22.1907C16.4136 21.8321 17.229 21.3232 17.9614 20.6745L19.9439 21.4366C20.0934 21.4937 20.2554 21.5003 20.4085 21.4555C20.5615 21.4108 20.6984 21.3168 20.8008 21.1861L20.8447 21.1307C21.6944 20.047 22.3462 18.8262 22.7881 17.4999L22.8101 17.4314C22.9151 17.1044 22.8247 16.7379 22.5781 16.5085ZM12.5122 17.8849C10.1416 17.8849 8.22024 15.8098 8.22024 13.2495C8.22024 10.6893 10.1416 8.61419 12.5122 8.61419C14.8828 8.61419 16.8042 10.6893 16.8042 13.2495C16.8042 15.8098 14.8828 17.8849 12.5122 17.8849Z" fill="#ADADAD"/>
    </svg>
    