<svg width="30" height="30" viewBox="0 0 25 27" fill="none" xmlns="http://www.w3.org/2000/svg">
    <path d="M2.0835 9C2.0835 8.70163 2.19324 8.41548 2.38859 8.20451C2.58394 7.99353 2.8489 7.875 3.12516 7.875H21.8752C22.1514 7.875 22.4164 7.99353 22.6117 8.20451C22.8071 8.41548 22.9168 8.70163 22.9168 9C22.9168 9.29837 22.8071 9.58452 22.6117 9.79549C22.4164 10.0065 22.1514 10.125 21.8752 10.125H3.12516C2.8489 10.125 2.58394 10.0065 2.38859 9.79549C2.19324 9.58452 2.0835 9.29837 2.0835 9V9Z" fill="#1C110A"/>
    <path d="M2.0835 13.5C2.0835 13.2016 2.19324 12.9155 2.38859 12.7045C2.58394 12.4935 2.8489 12.375 3.12516 12.375H21.8752C22.1514 12.375 22.4164 12.4935 22.6117 12.7045C22.8071 12.9155 22.9168 13.2016 22.9168 13.5C22.9168 13.7984 22.8071 14.0845 22.6117 14.2955C22.4164 14.5065 22.1514 14.625 21.8752 14.625H3.12516C2.8489 14.625 2.58394 14.5065 2.38859 14.2955C2.19324 14.0845 2.0835 13.7984 2.0835 13.5V13.5Z" fill="#1C110A"/>
    <path d="M3.12516 16.875C2.8489 16.875 2.58394 16.9935 2.38859 17.2045C2.19324 17.4155 2.0835 17.7016 2.0835 18C2.0835 18.2984 2.19324 18.5845 2.38859 18.7955C2.58394 19.0065 2.8489 19.125 3.12516 19.125H15.6252C15.9014 19.125 16.1664 19.0065 16.3617 18.7955C16.5571 18.5845 16.6668 18.2984 16.6668 18C16.6668 17.7016 16.5571 17.4155 16.3617 17.2045C16.1664 16.9935 15.9014 16.875 15.6252 16.875H3.12516Z" fill="#1C110A"/>
    </svg>
    